<svg width="21" height="20" viewBox="0 0 21 20" fill="none" xmlns="http://www.w3.org/2000/svg">
<g clip-path="url(#clip0_3447_666)">
<path d="M13.5439 17.5V15.8333C13.5439 14.9493 13.1928 14.1014 12.5676 13.4763C11.9425 12.8512 11.0947 12.5 10.2106 12.5H4.37728C3.49322 12.5 2.64538 12.8512 2.02026 13.4763C1.39513 14.1014 1.04395 14.9493 1.04395 15.8333V17.5" stroke="#013094" stroke-width="2" stroke-linecap="round" stroke-linejoin="round"/>
<path d="M7.29378 9.16667C9.13473 9.16667 10.6271 7.67428 10.6271 5.83333C10.6271 3.99238 9.13473 2.5 7.29378 2.5C5.45283 2.5 3.96045 3.99238 3.96045 5.83333C3.96045 7.67428 5.45283 9.16667 7.29378 9.16667Z" stroke="#013094" stroke-width="2" stroke-linecap="round" stroke-linejoin="round"/>
<path d="M16.877 6.66663V11.6666" stroke="#013094" stroke-width="2" stroke-linecap="round" stroke-linejoin="round"/>
<path d="M19.377 9.16663H14.377" stroke="#013094" stroke-width="2" stroke-linecap="round" stroke-linejoin="round"/>
</g>
<defs>
<clipPath id="clip0_3447_666">
<rect width="20" height="20" fill="white" transform="translate(0.210449)"/>
</clipPath>
</defs>
</svg>
