<svg width="48" height="48" viewBox="0 0 48 48" fill="none" xmlns="http://www.w3.org/2000/svg">
<rect width="48" height="48" rx="16" fill="#FDAC00"/>
<path d="M39.6004 30V28.8H38.4004V30V31.2H39.6004V30Z" fill="#373737"/>
<path d="M39.6004 25.2H38.4004V26.4H39.6004V25.2Z" fill="#373737"/>
<path d="M37.1996 24H35.9996H34.7996V25.2V26.4V27.6V28.8V30V31.2V32.4H33.5996V33.6H32.3996V34.8H31.1996V36H29.9996V37.2H28.7996H27.5996V38.4H26.3996H25.1996H23.9996H22.7996H21.5996H20.3996V37.2H19.1996H17.9996V36H16.7996V34.8H15.5996V33.6H14.3996V32.4H13.1996V31.2V30V28.8V27.6V26.4V25.2V24H11.9996H10.7996H9.59961V25.2H10.7996H11.9996V26.4V27.6V28.8V30V31.2H10.7996H9.59961V32.4H10.7996H11.9996V33.6H13.1996V34.8H14.3996V36H15.5996V37.2H16.7996V38.4H17.9996H19.1996V39.6H20.3996H21.5996H22.7996H23.9996H25.1996H26.3996H27.5996H28.7996V38.4H29.9996H31.1996V37.2H32.3996V36H33.5996V34.8H34.7996V33.6H35.9996V32.4H37.1996H38.3996V31.2H37.1996H35.9996V30V28.8V27.6V26.4V25.2H37.1996H38.3996V24H37.1996Z" fill="#373737"/>
<path d="M33.5996 18H34.7996V19.2V20.4V21.6V22.8H35.9996V21.6V20.4V19.2V18V16.8H34.7996V15.6H33.5996V16.8V18Z" fill="#373737"/>
<path d="M29.9998 12V13.2H31.1998V14.4H32.3998V15.6H33.5998V14.4V13.2H32.3998V12H31.1998V10.8H29.9998H28.7998V12H29.9998Z" fill="#373737"/>
<path d="M21.6002 10.8H22.8002H24.0002H25.2002H26.4002H27.6002H28.8002V9.59998H27.6002H26.4002H25.2002H24.0002H22.8002H21.6002H20.4002H19.2002V10.8H20.4002H21.6002Z" fill="#373737"/>
<path d="M15.6004 14.4H16.8004V13.2H18.0004V12H19.2004V10.8H18.0004H16.8004V12H15.6004V13.2H14.4004V14.4V15.6H15.6004V14.4Z" fill="#373737"/>
<path d="M13.2 21.6V20.4V19.2V18H14.4V16.8V15.6H13.2V16.8H12V18V19.2V20.4V21.6V22.8H13.2V21.6Z" fill="#373737"/>
<path d="M9.60039 30H8.40039V31.2H9.60039V30Z" fill="#373737"/>
<path d="M9.60039 27.6H8.40039V28.8H9.60039V27.6Z" fill="#373737"/>
<path d="M9.60039 25.2H8.40039V26.4H9.60039V25.2Z" fill="#373737"/>
<path d="M32.4004 26.4V27.6H31.2004V28.8H30.0004H28.8004H27.6004V27.6H26.4004V26.4V25.2H25.2004H24.0004H22.8004H21.6004V26.4V27.6H20.4004V28.8H19.2004H18.0004H16.8004V27.6H15.6004V26.4V25.2H14.4004V26.4V27.6V28.8V30V31.2H15.6004V32.4H16.8004V33.5999H18.0004V34.7999H19.2004V35.9999H20.4004H21.6004V37.1999H22.8004H24.0004H25.2004H26.4004V35.9999H27.6004H28.8004V34.7999H30.0004V33.5999H31.2004V32.4H32.4004V31.2H33.6004V30V28.8V27.6V26.4V25.2H32.4004V26.4Z" fill="#F3BFB0"/>
<path d="M37.2 26.4V27.6V28.8V30H36V31.2H37.2H38.4V30V28.8V27.6V26.4H37.2Z" fill="#F3BFB0"/>
<path d="M32.4004 14.4H31.2004V13.2H30.0004V12H28.8004V10.8H27.6004H26.4004H25.2004H24.0004H22.8004H21.6004H20.4004H19.2004V12H18.0004V13.2H16.8004V14.4H15.6004V15.6H14.4004V16.8V18V19.2V20.4V21.6H15.6004H16.8004H18.0004H19.2004H20.4004H21.6004H22.8004V22.8H24.0004H25.2004V21.6H26.4004H27.6004H28.8004H30.0004H31.2004H32.4004H33.6004V20.4V19.2V18V16.8V15.6H32.4004V14.4Z" fill="#F3BFB0"/>
<path d="M9.59961 30V31.2H10.7996H11.9996V30H10.7996H9.59961Z" fill="#F3BFB0"/>
<path d="M10.7996 27.6H9.59961V28.8H10.7996V27.6Z" fill="#F3BFB0"/>
<path d="M38.4004 26.4V27.6V28.8H39.6004V27.6V26.4H38.4004Z" fill="#FDAC00"/>
<path d="M8.40039 28.8V30H9.60039H10.8004V28.8H9.60039H8.40039Z" fill="#FDAC00"/>
<path d="M8.40039 26.4V27.6H9.60039H10.8004V26.4H9.60039H8.40039Z" fill="#FDAC00"/>
<path d="M37.2 25.2H36V26.4V27.6V28.8V30H37.2V28.8V27.6V26.4H38.4V25.2H37.2Z" fill="#EBA596"/>
<path d="M33.5996 19.2V20.4V21.6V22.8H34.7996V21.6V20.4V19.2V18H33.5996V19.2Z" fill="#EBA596"/>
<path d="M32.4002 24V25.2H33.6002V26.4V27.6V28.8V30V31.2H32.4002V32.4H31.2002V33.6H30.0002V34.8H28.8002V36H27.6002H26.4002V37.2H25.2002H24.0002H22.8002H21.6002V36H20.4002H19.2002V34.8H18.0002V33.6H16.8002V32.4H15.6002V31.2H14.4002V30V28.8V27.6V26.4V25.2H15.6002V24H14.4002H13.2002V25.2V26.4V27.6V28.8V30V31.2V32.4H14.4002V33.6H15.6002V34.8H16.8002V36H18.0002V37.2H19.2002H20.4002V38.4H21.6002H22.8002H24.0002H25.2002H26.4002H27.6002V37.2H28.8002H30.0002V36H31.2002V34.8H32.4002V33.6H33.6002V32.4H34.8002V31.2V30V28.8V27.6V26.4V25.2V24H33.6002H32.4002Z" fill="#EBA596"/>
<path d="M32.4002 26.4H31.2002V27.6H32.4002V26.4Z" fill="#EBA596"/>
<path d="M28.7996 28.8H29.9996H31.1996V27.6H29.9996H28.7996H27.5996V28.8H28.7996Z" fill="#EBA596"/>
<path d="M27.6004 26.4H26.4004V27.6H27.6004V26.4Z" fill="#EBA596"/>
<path d="M23.9996 25.2H25.1996H26.3996V24H25.1996H23.9996H22.7996H21.5996V25.2H22.7996H23.9996Z" fill="#EBA596"/>
<path d="M21.6004 26.4H20.4004V27.6H21.6004V26.4Z" fill="#EBA596"/>
<path d="M17.9998 28.8H19.1998H20.3998V27.6H19.1998H17.9998H16.7998V28.8H17.9998Z" fill="#EBA596"/>
<path d="M16.7996 26.4H15.5996V27.6H16.7996V26.4Z" fill="#EBA596"/>
<path d="M14.4002 21.6V20.4V19.2V18H13.2002V19.2V20.4V21.6V22.8H14.4002V21.6Z" fill="#EBA596"/>
<path d="M9.59961 25.2V26.4H10.7996V27.6V28.8V30H11.9996V28.8V27.6V26.4V25.2H10.7996H9.59961Z" fill="#EBA596"/>
<path d="M34.8 22.8H33.6V21.6H25.2V22.8H22.8V21.6H14.4V22.8H12V24H15.6V26.4H16.8V27.6H20.4V26.4H21.6V24H26.4V26.4H27.6V27.6H31.2V26.4H32.4V24H36V22.8H34.8ZM20.4 24V25.2H19.2V22.8H20.4V24ZM31.2 24V25.2H30V22.8H31.2V24Z" fill="#D08F6C"/>
<path d="M30 22.8V24V25.2H31.2V24V22.8H30Z" fill="#F5F1D4"/>
<path d="M19.2002 24V25.2H20.4002V24V22.8H19.2002V24Z" fill="#F5F1D4"/>
</svg>
