<svg width="21" height="20" viewBox="0 0 21 20" fill="none" xmlns="http://www.w3.org/2000/svg">
<g clip-path="url(#clip0_3447_3757)">
<path d="M19.0436 15.8333C19.0436 16.2754 18.868 16.6993 18.5555 17.0118C18.2429 17.3244 17.819 17.5 17.377 17.5H4.04362C3.60159 17.5 3.17767 17.3244 2.86511 17.0118C2.55255 16.6993 2.37695 16.2754 2.37695 15.8333V4.16667C2.37695 3.72464 2.55255 3.30072 2.86511 2.98816C3.17767 2.67559 3.60159 2.5 4.04362 2.5H8.21029L9.87695 5H17.377C17.819 5 18.2429 5.17559 18.5555 5.48816C18.868 5.80072 19.0436 6.22464 19.0436 6.66667V15.8333Z" stroke="#013094" stroke-width="2" stroke-linecap="round" stroke-linejoin="round"/>
<path d="M10.7104 9.16663V14.1666" stroke="#013094" stroke-width="2" stroke-linecap="round" stroke-linejoin="round"/>
<path d="M8.21045 11.6666H13.2104" stroke="#013094" stroke-width="2" stroke-linecap="round" stroke-linejoin="round"/>
</g>
<defs>
<clipPath id="clip0_3447_3757">
<rect width="20" height="20" fill="white" transform="translate(0.710449)"/>
</clipPath>
</defs>
</svg>
