<svg width="259" height="259" viewBox="0 0 259 259" fill="none" xmlns="http://www.w3.org/2000/svg">
<path d="M129 123V137" stroke="#F3EBDD" stroke-width="2" stroke-linecap="round" stroke-linejoin="round"/>
<path d="M122 130H136" stroke="#F3EBDD" stroke-width="2" stroke-linecap="round" stroke-linejoin="round"/>
<g opacity="0.1">
<path d="M104.224 91.454H104.229L115.332 91.4259C116.376 91.42 117.218 90.5719 117.217 89.5279C117.215 88.4847 116.37 87.6384 115.326 87.6359H115.321L104.219 87.664H104.218C103.175 87.67 102.332 88.518 102.333 89.562C102.335 90.6052 103.18 91.4515 104.224 91.454H104.224Z" fill="#F3EBDD"/>
<path d="M103.74 99.0903H103.743L115.365 99.0664C116.41 99.0604 117.254 98.2116 117.252 97.1675C117.251 96.1227 116.406 95.2755 115.362 95.2721H115.358L103.737 95.296C102.692 95.3019 101.849 96.1508 101.85 97.1948C101.85 98.2397 102.696 99.0869 103.74 99.0903Z" fill="#F3EBDD"/>
<path d="M103.257 106.727H103.261L115.402 106.706H115.402C116.451 106.705 117.3 105.854 117.3 104.806C117.298 103.756 116.447 102.908 115.398 102.908H115.395L103.254 102.929C102.205 102.93 101.356 103.781 101.357 104.829C101.358 105.879 102.209 106.727 103.257 106.727Z" fill="#F3EBDD"/>
<path d="M102.778 114.363H102.779L115.443 114.346C116.492 114.346 117.342 113.495 117.342 112.445C117.341 111.395 116.49 110.544 115.44 110.545H115.438L102.775 110.562C101.726 110.562 100.875 111.413 100.875 112.463C100.876 113.513 101.728 114.364 102.778 114.363Z" fill="#F3EBDD"/>
<path d="M102.294 121.999H102.296L115.48 121.987H115.48C116.528 121.982 117.374 121.13 117.373 120.083C117.373 119.035 116.526 118.186 115.479 118.181H115.477L102.293 118.194H102.292C101.245 118.199 100.399 119.051 100.399 120.098C100.4 121.145 101.247 121.995 102.294 121.999Z" fill="#F3EBDD"/>
<path d="M101.815 129.636H101.817L115.517 129.625C116.568 129.624 117.421 128.772 117.42 127.72C117.419 126.669 116.567 125.817 115.515 125.818H115.513L101.813 125.829C100.762 125.83 99.9098 126.682 99.9106 127.734C99.9115 128.784 100.764 129.637 101.815 129.636Z" fill="#F3EBDD"/>
<path d="M101.331 137.272H101.333L115.556 137.265C116.609 137.265 117.461 136.411 117.461 135.359C117.46 134.306 116.607 133.453 115.554 133.454H115.553L101.329 133.462C100.277 133.462 99.4244 134.316 99.4253 135.367C99.4253 136.42 100.279 137.273 101.331 137.272Z" fill="#F3EBDD"/>
<path d="M100.841 144.909L115.603 144.905C116.657 144.905 117.512 144.05 117.512 142.996C117.512 141.941 116.657 141.087 115.603 141.087L100.841 141.09C99.7865 141.09 98.9316 141.945 98.9316 142.999C98.9316 144.054 99.7865 144.909 100.841 144.909Z" fill="#F3EBDD"/>
<path d="M115.636 148.727H100.363C99.3089 148.727 98.4541 149.582 98.4541 150.636C98.4541 151.69 99.3089 152.545 100.363 152.545H115.636C116.69 152.545 117.545 151.69 117.545 150.636C117.545 149.582 116.69 148.727 115.636 148.727Z" fill="#F3EBDD"/>
<path d="M170.991 154.406C170.99 154.388 170.999 154.372 170.998 154.354L167.18 81.8085C167.126 80.7943 166.289 80 165.273 80H92.7273C91.7114 80 90.8736 80.7943 90.8199 81.8085L87.0017 154.354C87.0009 154.372 87.0102 154.388 87.0094 154.406L87 154.455V162.091C87 162.597 87.2011 163.083 87.5591 163.441C87.917 163.799 88.4028 164 88.9091 164H90.8182V177.364C90.8182 177.87 91.0193 178.356 91.3773 178.714C91.7352 179.072 92.221 179.273 92.7273 179.273H165.273C165.779 179.273 166.265 179.072 166.623 178.714C166.981 178.356 167.182 177.87 167.182 177.364V164H169.091C169.597 164 170.083 163.799 170.441 163.441C170.799 163.083 171 162.597 171 162.091V154.455L170.991 154.406ZM125.181 83.8176H153.876L155.666 141.09H125.182L125.181 83.8176ZM113.727 167.818H102.272V160.181H113.727V167.818ZM165.272 152.545C164.766 152.545 164.28 152.746 163.922 153.104C163.564 153.462 163.363 153.948 163.363 154.454V167.818H117.545V158.272C117.545 157.766 117.344 157.28 116.986 156.922C116.628 156.564 116.142 156.363 115.636 156.363H100.363C99.8567 156.363 99.3709 156.564 99.013 156.922C98.655 157.28 98.4539 157.766 98.4539 158.272V167.818H94.6357V154.454C94.6357 153.948 94.4346 153.462 94.0766 153.104C93.7187 152.746 93.2329 152.545 92.7266 152.545H90.9198L94.5386 83.8176H121.364V142.999C121.364 143.506 121.565 143.991 121.923 144.349C122.281 144.707 122.767 144.909 123.273 144.909H157.637C158.153 144.909 158.648 144.699 159.008 144.328C159.368 143.957 159.561 143.456 159.546 142.94L157.698 83.8168H163.461L167.08 152.544L165.272 152.545Z" fill="#F3EBDD"/>
</g>
<circle cx="129.5" cy="129.5" r="129" stroke="#F3EBDD" stroke-dasharray="4 4"/>
</svg>
