<svg width="49" height="48" viewBox="0 0 49 48" fill="none" xmlns="http://www.w3.org/2000/svg">
<path d="M0.666504 24C0.666504 37.2548 11.4117 48 24.6665 48C37.9213 48 48.6665 37.2548 48.6665 24C48.6665 10.7452 37.9213 0 24.6665 0C11.4117 0 0.666504 10.7452 0.666504 24Z" fill="#F00073"/>
<path d="M24.6663 13.8C27.9663 13.8 28.4163 13.8 29.7663 13.8C30.9663 13.8 31.5663 14.1 32.0163 14.25C32.6163 14.55 33.0663 14.7 33.5163 15.15C33.9663 15.6 34.2663 16.05 34.4163 16.65C34.5663 17.1 34.7163 17.7 34.8663 18.9C34.8663 20.25 34.8663 20.55 34.8663 24C34.8663 27.45 34.8663 27.75 34.8663 29.1C34.8663 30.3 34.5663 30.9 34.4163 31.35C34.1163 31.95 33.9663 32.4 33.5163 32.85C33.0663 33.3 32.6163 33.6 32.0163 33.75C31.5663 33.9 30.9663 34.05 29.7663 34.2C28.4163 34.2 28.1163 34.2 24.6663 34.2C21.2163 34.2 20.9163 34.2 19.5663 34.2C18.3663 34.2 17.7663 33.9 17.3163 33.75C16.7163 33.4501 16.2663 33.3 15.8163 32.85C15.3663 32.4 15.0663 31.95 14.9163 31.35C14.7663 30.9 14.6163 30.3 14.4663 29.1C14.4663 27.75 14.4663 27.45 14.4663 24C14.4663 20.55 14.4663 20.25 14.4663 18.9C14.4663 17.7 14.7663 17.1 14.9163 16.65C15.2163 16.05 15.3663 15.6 15.8163 15.15C16.2663 14.7 16.7163 14.4 17.3163 14.25C17.7663 14.1 18.3663 13.95 19.5663 13.8C20.9163 13.8 21.3663 13.8 24.6663 13.8ZM24.6663 11.55C21.2163 11.55 20.9163 11.55 19.5663 11.55C18.2163 11.55 17.3163 11.85 16.5663 12.15C15.8163 12.45 15.0663 12.9 14.3163 13.65C13.5663 14.4 13.2663 15 12.8163 15.9C12.5163 16.65 12.3663 17.55 12.2163 18.9C12.2163 20.25 12.2163 20.7 12.2163 24C12.2163 27.45 12.2163 27.75 12.2163 29.1C12.2163 30.45 12.5163 31.35 12.8163 32.1C13.1163 32.85 13.5663 33.6 14.3163 34.35C15.0663 35.1 15.6663 35.4 16.5663 35.85C17.3163 36.1501 18.2163 36.3 19.5663 36.45C20.9163 36.45 21.3663 36.45 24.6663 36.45C27.9663 36.45 28.4163 36.45 29.7663 36.45C31.1163 36.45 32.0163 36.1501 32.7663 35.85C33.5163 35.55 34.2663 35.1 35.0163 34.35C35.7663 33.6 36.0663 33 36.5163 32.1C36.8163 31.35 36.9663 30.45 37.1163 29.1C37.1163 27.75 37.1163 27.3 37.1163 24C37.1163 20.7 37.1163 20.25 37.1163 18.9C37.1163 17.55 36.8163 16.65 36.5163 15.9C36.2163 15.15 35.7663 14.4 35.0163 13.65C34.2663 12.9 33.6663 12.6 32.7663 12.15C32.0163 11.85 31.1163 11.7 29.7663 11.55C28.4163 11.55 28.1163 11.55 24.6663 11.55Z" fill="white"/>
<path d="M24.6663 17.55C21.0663 17.55 18.2163 20.4 18.2163 24C18.2163 27.6 21.0663 30.45 24.6663 30.45C28.2663 30.45 31.1163 27.6 31.1163 24C31.1163 20.4 28.2663 17.55 24.6663 17.55ZM24.6663 28.2C22.4163 28.2 20.4663 26.4 20.4663 24C20.4663 21.75 22.2663 19.8 24.6663 19.8C26.9163 19.8 28.8663 21.6 28.8663 24C28.8663 26.25 26.9163 28.2 24.6663 28.2Z" fill="white"/>
<path d="M31.2663 18.9C32.0947 18.9 32.7663 18.2285 32.7663 17.4C32.7663 16.5716 32.0947 15.9 31.2663 15.9C30.4379 15.9 29.7663 16.5716 29.7663 17.4C29.7663 18.2285 30.4379 18.9 31.2663 18.9Z" fill="white"/>
</svg>
