<svg width="73" height="44" viewBox="0 0 73 44" fill="none" xmlns="http://www.w3.org/2000/svg">
<g clip-path="url(#clip0_1768_31199)">
<path d="M11.1284 12.3772L8.80867 12.8114V19.2574L5.33451 19.9093V13.456L4.17426 13.676L1.85449 14.1094V20.5627L3.01401 20.3427V21.6334L4.17426 21.4134V22.704L5.33451 22.484V26.3553L8.80867 25.7041V21.8387L9.96891 21.6187V20.328L11.1284 20.108V18.824L12.2887 18.604V12.158L11.1284 12.3772Z" fill="#FDAC00"/>
<path d="M8.80863 19.2632L5.33447 19.9144V18.6266L7.65424 18.1925L8.80863 19.2632Z" fill="#EC6C0D"/>
<path d="M4.17435 12.3933L0.700195 13.046L1.86044 14.1196L4.17435 13.6796L5.3346 13.4596L4.17435 12.3933Z" fill="#EC6C0D"/>
<path d="M11.1285 11.0865L7.6543 11.7377L8.80869 12.8113L11.1285 12.3772L12.2887 12.1572L11.1285 11.0865Z" fill="#EC6C0D"/>
<path d="M8.80869 12.8114V19.2647L7.6543 18.1904V11.7371L8.80869 12.8114Z" fill="#D62500"/>
<path d="M0.700195 13.046V19.4994L1.86045 20.5678V14.1196L0.700195 13.046Z" fill="#D62500"/>
<path d="M1.86035 20.5656L3.01987 20.3492V21.6392L1.86035 20.5656Z" fill="#D62500"/>
<path d="M3.02002 21.6392L4.17441 21.4192V22.7099L3.02002 21.6392Z" fill="#D62500"/>
<path d="M4.17432 22.7128V25.2941L5.33457 26.367V22.4957L4.17432 22.7128Z" fill="#D62500"/>
<path d="M17.5269 13.6561L24.4811 12.3478V9.76648L23.3208 9.98648L14.0527 11.7259V24.6245L24.4811 22.6658V20.0845L23.3208 20.3045L17.5269 21.3957V18.8121L23.3208 17.7209V15.1396L22.1613 15.3596L17.5269 16.2337V13.6561Z" fill="#FDAC00"/>
<path d="M12.8926 10.6583V23.5577L14.0528 24.6313V11.7246L12.8926 10.6583Z" fill="#D62500"/>
<path d="M22.1671 14.0719L17.5269 14.946V16.2367L22.1671 15.3626L23.3208 15.1426L22.1671 14.0719Z" fill="#EC6C0D"/>
<path d="M23.3208 19.0176L17.5269 20.108V21.3987L23.3208 20.3075L24.481 20.0875L23.3208 19.0176Z" fill="#EC6C0D"/>
<path d="M23.3209 8.69885L12.8926 10.6583L14.0528 11.7261L23.3209 9.98365L24.4812 9.76365L23.3209 8.69885Z" fill="#EC6C0D"/>
<path d="M53.1363 6.96663L60.0904 5.65836V3.07336L58.9302 3.29336L49.6621 5.0387V17.938L60.0904 15.9786V13.398L58.9302 13.618L53.1363 14.7084V12.1249L58.9324 11.0337V8.45236L57.7729 8.67236L53.1385 9.5465L53.1363 6.96663Z" fill="#FDAC00"/>
<path d="M48.502 3.96509V16.8666L49.6622 17.9402V5.03869L48.502 3.96509Z" fill="#D62500"/>
<path d="M57.7706 7.38538L53.1362 8.25291V9.54358L57.7706 8.67531L58.9301 8.45531L57.7706 7.38538Z" fill="#EC6C0D"/>
<path d="M58.9326 12.3243L53.1387 13.4148V14.7055L58.9326 13.6143L60.0928 13.3943L58.9326 12.3243Z" fill="#EC6C0D"/>
<path d="M58.9325 2.00635L48.502 3.96508L49.6622 5.03868L58.9325 3.29995L60.0927 3.07995L58.9325 2.00635Z" fill="#EC6C0D"/>
<path d="M47.084 5.61953L43.6098 6.27073L42.4503 6.49073L37.8159 7.36487V9.94547L40.1298 9.50547L41.2901 9.28547V19.6035L44.7642 18.9523V8.63427L48.2384 7.98307V5.40247L47.084 5.61953Z" fill="#FDAC00"/>
<path d="M47.0836 4.32666L42.4514 5.19713L41.2911 5.41713L36.6553 6.28833L37.8089 7.36193L42.4514 6.48779L43.6051 6.26779L47.0851 5.61659L48.2453 5.39659L47.0836 4.32666Z" fill="#EC6C0D"/>
<path d="M36.6553 6.28833V8.86893L37.8089 9.94253V7.36193L36.6553 6.28833Z" fill="#D62500"/>
<path d="M40.1294 9.50259V18.5365L41.2896 19.6094V9.28552L40.1294 9.50259Z" fill="#D62500"/>
<path d="M71.1401 8.81028V7.52035L72.3004 7.30035V2.14135L71.1401 2.36135V1.06775L69.9806 1.28775L61.8721 2.81308V15.7087L65.3462 15.0575V11.1863L66.5065 10.9663V12.2569L67.666 12.0369V13.3276L68.668 13.1399L68.8204 13.1105V14.4005L72.2945 13.7493V12.4667L71.1343 12.6867V11.396L69.9748 11.616V10.318L68.8145 10.538V9.24735L71.1401 8.81028ZM65.3462 7.32088V4.73955L67.666 4.30542L68.8262 4.08542V6.67335L65.3462 7.32088Z" fill="#FDAC00"/>
<path d="M68.8211 4.08838V6.67338L67.666 5.59611V4.30545L68.8211 4.08838Z" fill="#D62500"/>
<path d="M60.7114 1.74243V14.641L61.8717 15.7146V2.81603L60.7114 1.74243Z" fill="#D62500"/>
<path d="M66.5064 12.2658V10.9751L65.3462 11.1951L66.5064 12.2658Z" fill="#D62500"/>
<path d="M67.66 13.3394V12.0487L66.5063 12.2687L67.66 13.3394Z" fill="#D62500"/>
<path d="M68.8209 14.4064V13.1165L67.6606 13.3365L68.8209 14.4064Z" fill="#D62500"/>
<path d="M68.8208 6.67334L65.3467 7.32454V6.0302L67.6664 5.59607L68.8208 6.67334Z" fill="#EC6C0D"/>
<path d="M69.9795 0L60.7114 1.7424L61.8717 2.81527L69.9795 1.29067L71.1398 1.07067L69.9795 0Z" fill="#EC6C0D"/>
<path d="M72.3004 2.14721L71.1401 2.36721V1.07361L72.3004 2.14721Z" fill="#EC6C0D"/>
<path d="M69.9806 10.318L68.8203 10.538V9.25024L69.9806 10.318Z" fill="#EC6C0D"/>
<path d="M71.1397 11.3916L69.9795 11.6116V10.318L71.1397 11.3916Z" fill="#EC6C0D"/>
<path d="M72.3004 12.4667L71.1401 12.6867V11.396L72.3004 12.4667Z" fill="#EC6C0D"/>
<path d="M8.50974 39.6183L5.80908 40.1316V44L9.67585 43.2725V39.4012L8.50974 39.6183Z" fill="#FDAC00"/>
<path d="M8.50983 38.3276L4.64307 39.061L5.80918 40.1287L8.50983 39.6154L9.67594 39.3954L8.50983 38.3276Z" fill="#EC6C0D"/>
<path d="M4.64307 39.061V42.9264L5.80918 44V40.1288L4.64307 39.061Z" fill="#D62500"/>
<path d="M53.271 24.8182L60.2252 23.5107V20.9293L59.0657 21.1493L49.7969 22.8947V35.794L60.2252 33.8345V31.2532L59.0657 31.4732L53.271 32.56V29.9809L59.0657 28.8933V26.312L57.9054 26.532L53.271 27.4061V24.8248V24.8182Z" fill="#FDAC00"/>
<path d="M48.6367 21.821V34.7204L49.797 35.794V22.8946L48.6367 21.821Z" fill="#D62500"/>
<path d="M57.9113 25.2406L53.271 26.1067V27.3973L57.9113 26.5291L59.0657 26.3091L57.9113 25.2406Z" fill="#EC6C0D"/>
<path d="M59.0657 30.1796L53.271 31.2708V32.56L59.0657 31.4688L60.2252 31.2488L59.0657 30.1796Z" fill="#EC6C0D"/>
<path d="M59.0658 19.8616L48.6367 21.821L49.797 22.8946L59.0658 21.1522L60.2253 20.9322L59.0658 19.8616Z" fill="#EC6C0D"/>
<path d="M69.9799 23.0706L72.3004 22.6365V20.0552L71.1401 20.2752V18.9845L69.9799 19.2045L63.0257 20.512V21.8027L61.8662 22.0227V27.1846L63.0257 26.9646V28.2553L64.186 28.0353L67.6601 27.3841L68.8204 27.1641V29.7454L65.3462 30.3966V29.106L64.186 29.326L61.8662 29.7601V32.34L63.0257 32.12V33.4106L71.1343 31.8853V30.5946L72.2945 30.3746V25.2178L71.1343 25.4342V24.1442L69.9748 24.3642L65.3404 25.2376V22.6541L67.6601 22.22L68.8211 22V23.2906L69.9799 23.0706Z" fill="#FDAC00"/>
<path d="M68.8208 29.7345L65.3467 30.3945V29.1038L67.6664 28.6638L68.8208 29.7345Z" fill="#EC6C0D"/>
<path d="M63.0253 21.7917L61.8717 22.0117L60.7114 20.9381L61.8717 20.7181L63.0253 21.7917Z" fill="#EC6C0D"/>
<path d="M72.3004 20.0493L71.1401 20.273V18.9823L72.3004 20.0493Z" fill="#EC6C0D"/>
<path d="M71.1401 18.9823L69.9806 17.9087L61.8721 19.4333L63.0265 20.5069L69.9806 19.1994L71.1401 18.9823Z" fill="#EC6C0D"/>
<path d="M72.3004 25.212L71.1401 25.4284V24.1384L72.3004 25.212Z" fill="#EC6C0D"/>
<path d="M69.9806 23.0765L68.8203 23.2965L65.3462 23.9565V25.2465L69.9806 24.3731L71.1401 24.1443L69.9806 23.0765Z" fill="#EC6C0D"/>
<path d="M64.1856 28.0272L63.0253 28.2472L60.7114 28.6814L61.8717 29.755L64.1856 29.3208L65.3458 29.1008L64.1856 28.0272Z" fill="#EC6C0D"/>
<path d="M68.8209 27.1531V29.7344L67.6665 28.6608V27.3701L68.8209 27.1531Z" fill="#D62500"/>
<path d="M63.0265 20.5069V21.7917L61.8721 20.724V19.4333L63.0265 20.5069Z" fill="#D62500"/>
<path d="M60.7114 28.6785V31.2591L61.8717 32.3327V29.7513L60.7114 28.6785Z" fill="#D62500"/>
<path d="M63.0265 33.4063V32.1156L61.8721 32.3356L63.0265 33.4063Z" fill="#D62500"/>
<path d="M60.7114 20.941V26.0971L61.8717 27.1707V22.0146L60.7114 20.941Z" fill="#D62500"/>
<path d="M63.0265 28.2443V26.9536L61.8721 27.1736L63.0265 28.2443Z" fill="#D62500"/>
<path d="M68.8209 23.2877V22L67.6665 22.22L68.8209 23.2877Z" fill="#D62500"/>
<path d="M20.3678 32.2916L21.5281 32.0716L22.6876 31.8516V29.2768L21.5281 29.4968V28.2062L20.3678 28.4262L13.4137 29.7344V31.02L12.2534 31.24V41.5543L13.4137 41.3343V42.625L21.5281 41.1004V39.8097L22.6876 39.5897V33.1364L21.5281 33.3564L16.8937 34.2305V36.8133L18.0539 36.5933L19.2135 36.377V38.9576L15.7393 39.6088V31.8692L19.2135 31.218L20.3737 30.998V32.2886L20.3678 32.2916Z" fill="#FDAC00"/>
<path d="M19.2076 38.9613L15.7334 39.6213V38.3306L18.048 37.8906L19.2076 38.9613Z" fill="#EC6C0D"/>
<path d="M21.5281 32.0746L20.3678 32.2946L15.7334 33.1687L16.8878 34.2394L21.5281 33.3667L22.6817 33.1467H22.6876L21.5281 32.0746Z" fill="#EC6C0D"/>
<path d="M13.4138 31.02L12.2535 31.2363L11.0933 30.1693L12.2535 29.9457L13.4138 31.02Z" fill="#EC6C0D"/>
<path d="M20.3678 27.1333L12.2534 28.6586L13.4137 29.7264L20.3678 28.424L21.5281 28.204L20.3678 27.1333Z" fill="#EC6C0D"/>
<path d="M22.682 29.2768L21.5283 29.4932V28.2091L22.682 29.2768Z" fill="#EC6C0D"/>
<path d="M19.2079 36.3806V38.9612L18.0483 37.8876V36.5969L19.2079 36.3806Z" fill="#D62500"/>
<path d="M13.4137 29.7286V31.02L12.2534 29.9464V28.6609L13.4137 29.7286Z" fill="#D62500"/>
<path d="M15.7334 33.1658V35.7464L16.8878 36.8134V34.2394L15.7334 33.1658Z" fill="#D62500"/>
<path d="M11.0933 30.1686V40.4858L12.2535 41.5594V31.2356L11.0933 30.1686Z" fill="#D62500"/>
<path d="M13.4137 42.6331V41.3424L12.2534 41.5624L13.4137 42.6331Z" fill="#D62500"/>
<path d="M20.3683 32.2916V31.001L19.208 31.221L20.3683 32.2916Z" fill="#D62500"/>
<path d="M33.9314 28.567V27.28L32.7712 27.5V26.2094L31.6109 26.4294L26.9772 27.3035V28.5942L25.817 28.8142V30.1048L24.6567 30.3248V40.6267L28.1309 39.9755V36.1049L30.4514 35.6701L31.6109 35.4501V39.3214L35.0858 38.6702V28.3441L33.9314 28.567ZM28.1368 33.5236V30.9423L29.297 30.7223V29.4353L30.4573 29.2153V30.5067L31.6168 30.2867V32.868L28.1368 33.5236Z" fill="#FDAC00"/>
<path d="M25.8244 30.0864L24.6642 30.3064L23.5024 29.2357L24.6627 29.0157L25.8244 30.0864Z" fill="#EC6C0D"/>
<path d="M26.9831 28.5787L25.8228 28.7987L24.6626 27.7251L25.8228 27.5051L26.9831 28.5787Z" fill="#EC6C0D"/>
<path d="M31.6167 32.8724L28.1367 33.5236V32.233L30.4572 31.7988L31.6167 32.8724Z" fill="#EC6C0D"/>
<path d="M31.6167 25.1299L25.8242 26.2203L26.9845 27.2881L31.6181 26.4198L32.7784 26.1998L31.6167 25.1299Z" fill="#EC6C0D"/>
<path d="M33.9312 27.28L32.7769 27.5V26.2094L33.9312 27.28Z" fill="#EC6C0D"/>
<path d="M35.0907 28.3441L33.9312 28.5641V27.28L35.0907 28.3441Z" fill="#EC6C0D"/>
<path d="M25.8243 28.8016V30.0864L24.6641 29.0187V27.728L25.8243 28.8016Z" fill="#D62500"/>
<path d="M26.983 27.2881V28.5787L25.8242 27.511V26.2203L26.983 27.2881Z" fill="#D62500"/>
<path d="M31.6165 30.291V32.8723L30.457 31.7987V30.5066L31.6165 30.291Z" fill="#D62500"/>
<path d="M23.5024 29.2358V39.5538L24.6627 40.6267V30.3094L23.5024 29.2358Z" fill="#D62500"/>
<path d="M30.457 35.6642V38.2455L31.6165 39.3191V35.4479L30.457 35.6642Z" fill="#D62500"/>
<path d="M30.4571 29.2183V30.5067L29.2969 29.4331L30.4571 29.2183Z" fill="#D62500"/>
<path d="M46.4395 23.5635L44.1197 23.9969V25.2876L42.9602 25.5076V26.7982L41.7999 27.0182V25.7276L40.6397 25.9476V24.6569L39.4794 24.8769L37.1597 25.3V38.1994L40.6338 37.5467V32.3855L41.7941 32.1655V33.4562L42.9543 33.2362V31.9514L44.1138 31.7314V36.8933L47.588 36.2421V23.3464L46.4395 23.5635Z" fill="#FDAC00"/>
<path d="M42.9645 26.7953L41.8042 27.0153V25.7246L42.9645 26.7953Z" fill="#EC6C0D"/>
<path d="M44.1196 25.2883L42.9659 25.5083L41.8057 24.4347L42.9645 24.2147L44.1196 25.2883Z" fill="#EC6C0D"/>
<path d="M39.4856 23.5811L36.0107 24.2323L37.171 25.3051L39.4856 24.8651L40.6451 24.6451L39.4856 23.5811Z" fill="#EC6C0D"/>
<path d="M40.6455 24.6481V25.9387L41.8058 25.7224L40.6455 24.6481Z" fill="#EC6C0D"/>
<path d="M46.4392 22.2728L42.9644 22.924L44.1187 23.9976L46.4385 23.5635L47.5988 23.3435L46.4392 22.2728Z" fill="#EC6C0D"/>
<path d="M42.9645 25.5046V26.7953L41.8042 25.7224V24.4318L42.9645 25.5046Z" fill="#D62500"/>
<path d="M44.1195 23.9975V25.2882L42.9644 24.2146V22.924L44.1195 23.9975Z" fill="#D62500"/>
<path d="M36.0107 24.2323V37.1309L37.171 38.2067V25.3052L36.0107 24.2323Z" fill="#D62500"/>
<path d="M40.6455 32.3914L41.8058 32.1714V33.4621L40.6455 32.3914Z" fill="#D62500"/>
<path d="M42.9644 31.9572V35.8226L44.1187 36.8962V31.7343L42.9644 31.9572Z" fill="#D62500"/>
<path d="M34.2421 11.9021L36.5619 11.4679V8.88659L35.4016 9.10659V7.81372L34.2421 8.03372L27.2894 9.33832V10.629L26.1299 10.849V16.0109L27.2894 15.7909V17.0816L28.4496 16.8616L31.9238 16.2104L33.0841 15.9904V18.5717L29.6099 19.2229V17.9323L28.4496 18.1523L26.1299 18.5857V21.167L27.2894 20.947V22.2377L35.398 20.7123V19.4283L36.5582 19.2083V14.0456L35.398 14.2656V12.9757L34.2384 13.1957L29.604 14.0691V11.4855L31.9238 11.0514L33.0841 10.8314V12.1221L34.2421 11.9021Z" fill="#FDAC00"/>
<path d="M33.0816 18.5716L29.6074 19.2221V17.9322L31.9213 17.498L33.0816 18.5716Z" fill="#EC6C0D"/>
<path d="M27.289 10.6289L26.1353 10.8489L24.9751 9.7753L26.1353 9.5553L27.289 10.6289Z" fill="#EC6C0D"/>
<path d="M36.5616 8.88659L35.4014 9.10659V7.81372L36.5616 8.88659Z" fill="#EC6C0D"/>
<path d="M35.4014 7.81371L34.2419 6.74011L26.1333 8.26545L27.2892 9.33831L34.2433 8.03078L35.4014 7.81371Z" fill="#EC6C0D"/>
<path d="M36.5616 14.0485L35.4014 14.2685V12.9756L36.5616 14.0485Z" fill="#EC6C0D"/>
<path d="M34.2418 11.9137L33.0816 12.1337L29.6074 12.7849V14.0748L34.2418 13.2073L35.4013 12.9785L34.2418 11.9137Z" fill="#EC6C0D"/>
<path d="M28.4473 16.8586L27.2871 17.0786V17.0728L24.9731 17.5128L26.1334 18.5864L28.4473 18.1464L29.6075 17.9264L28.4473 16.8586Z" fill="#EC6C0D"/>
<path d="M33.0816 15.9904V18.571L31.9214 17.4981V16.2067L33.0816 15.9904Z" fill="#D62500"/>
<path d="M27.2892 9.33825V10.6289L26.1333 9.55531V8.26538L27.2892 9.33825Z" fill="#D62500"/>
<path d="M24.9731 17.5156V20.0933L26.1334 21.161V18.5892L24.9731 17.5156Z" fill="#D62500"/>
<path d="M27.2892 22.2376V20.9469L26.1348 21.1669L27.2892 22.2376Z" fill="#D62500"/>
<path d="M24.9731 9.77246V14.9344L26.1334 16.008V10.8461L24.9731 9.77246Z" fill="#D62500"/>
<path d="M27.2892 17.0757V15.7909L26.1348 16.0109L27.2892 17.0757Z" fill="#D62500"/>
<path d="M33.0816 12.119V10.8284L31.9214 11.0484L33.0816 12.119Z" fill="#D62500"/>
</g>
<defs>
<clipPath id="clip0_1768_31199">
<rect width="71.6" height="44" fill="white" transform="translate(0.700195)"/>
</clipPath>
</defs>
</svg>
