<svg fill="none" height="24" viewBox="0 0 24 24" width="24" xmlns="http://www.w3.org/2000/svg"><path d="m13.73 21c-.1758.3031-.4282.5547-.7318.7295-.3036.1749-.6478.267-.9982.267s-.6946-.0921-.9982-.267c-.3036-.1748-.556-.4264-.7318-.7295m11.73-4h-20c.79565 0 1.55871-.3161 2.12132-.8787s.87868-1.3257.87868-2.1213v-5c0-1.85652.7375-3.63699 2.05025-4.94975 1.31276-1.31275 3.09325-2.05025 4.94975-2.05025s3.637.7375 4.9497 2.05025c1.3128 1.31276 2.0503 3.09323 2.0503 4.94975v5c0 .7956.3161 1.5587.8787 2.1213s1.3257.8787 2.1213.8787z" stroke="#fff" stroke-linecap="round" stroke-linejoin="round" stroke-width="2"/><circle cx="20" cy="4" fill="#34c759" r="4"/></svg>