<svg width="48" height="48" viewBox="0 0 48 48" fill="none" xmlns="http://www.w3.org/2000/svg">
<path d="M0 24C0 37.2548 10.7452 48 24 48C37.2548 48 48 37.2548 48 24C48 10.7452 37.2548 0 24 0C10.7452 0 0 10.7452 0 24Z" fill="#0078D7"/>
<path d="M24.0001 31.2C19.9501 31.2 18.1501 29.1 18.1501 27.6C18.1501 27.3 18.3001 26.85 18.6001 26.7C18.9001 26.4 19.2001 26.4 19.5001 26.4C21.1501 26.4 20.7001 28.95 24.0001 28.95C25.6501 28.95 26.5501 27.9 26.5501 27C26.5501 26.4 26.2501 25.8 25.2001 25.5L21.6001 24.6C18.7501 23.85 18.3001 22.2 18.3001 20.85C18.3001 17.7 21.1501 16.65 23.8501 16.65C26.2501 16.65 29.2501 18 29.2501 19.8C29.2501 20.55 28.6501 21 27.7501 21C26.2501 21 26.5501 18.9 23.5501 18.9C22.0501 18.9 21.3001 19.65 21.3001 20.55C21.3001 21.45 22.5001 21.9 23.4001 22.05L26.1001 22.65C28.9501 23.25 29.7001 25.05 29.7001 26.55C29.7001 29.4 27.7501 31.2 24.0001 31.2ZM35.1001 25.95C35.2501 25.35 35.2501 24.6 35.2501 24C35.2501 20.7 33.7501 17.55 31.2001 15.3C28.6501 13.05 25.2001 12.3 21.9001 12.75C21.0001 12.3 19.8001 12 18.6001 12C16.2001 12 13.9501 13.35 12.7501 15.45C11.5501 17.55 11.5501 20.1 12.7501 22.2C12.1501 25.8 13.2001 29.55 15.9001 32.25C18.4501 34.8 22.2001 36 25.8001 35.4C26.8501 36 27.9001 36.3 29.1001 36.3C31.5001 36.3 33.7501 34.95 34.9501 32.85C36.1501 30.6 36.3001 28.05 35.1001 25.95Z" fill="white"/>
</svg>
