<svg width="49" height="48" viewBox="0 0 49 48" fill="none" xmlns="http://www.w3.org/2000/svg">
<path d="M0.333496 24C0.333496 37.2548 11.0787 48 24.3335 48C37.5883 48 48.3335 37.2548 48.3335 24C48.3335 10.7452 37.5883 0 24.3335 0C11.0787 0 0.333496 10.7452 0.333496 24Z" fill="#25D366"/>
<path fill-rule="evenodd" clip-rule="evenodd" d="M32.7335 15.45C30.4835 13.2 27.4835 12 24.3335 12C17.7335 12 12.3335 17.4 12.3335 24C12.3335 26.1 12.9335 28.2 13.9835 30L12.3335 36L18.6335 34.35C20.4335 35.25 22.3835 35.85 24.3335 35.85C30.9335 35.85 36.3335 30.45 36.3335 23.85C36.3335 20.7 34.9835 17.7 32.7335 15.45ZM24.3335 33.9C22.5335 33.9 20.7335 33.45 19.2335 32.55L18.9335 32.4L15.1835 33.45L16.2335 29.85L15.9335 29.4C14.8835 27.75 14.4335 25.95 14.4335 24.15C14.4335 18.75 18.9335 14.25 24.3335 14.25C27.0335 14.25 29.4335 15.3 31.3835 17.1C33.3335 19.05 34.2335 21.45 34.2335 24.15C34.2335 29.4 29.8835 33.9 24.3335 33.9ZM29.7335 26.4C29.4335 26.25 27.9335 25.5 27.6335 25.5C27.3335 25.35 27.1835 25.35 27.0335 25.65C26.8835 25.95 26.2835 26.55 26.1335 26.85C25.9835 27 25.8335 27 25.5335 27C25.2335 26.85 24.3335 26.55 23.1335 25.5C22.2335 24.75 21.6335 23.7 21.4835 23.4C21.3335 23.1 21.4835 22.95 21.6335 22.8C21.7835 22.65 21.9335 22.5 22.0835 22.35C22.2335 22.2 22.2335 22.05 22.3835 21.9C22.5335 21.75 22.3835 21.6 22.3835 21.45C22.3835 21.3 21.7835 19.8 21.4835 19.2C21.3335 18.75 21.0335 18.75 20.8835 18.75C20.7335 18.75 20.5835 18.75 20.2835 18.75C20.1335 18.75 19.8335 18.75 19.5335 19.05C19.2335 19.35 18.4835 20.1 18.4835 21.6C18.4835 23.1 19.5335 24.45 19.6835 24.75C19.8335 24.9 21.7835 28.05 24.7835 29.25C27.3335 30.3 27.7835 30 28.3835 30C28.9835 30 30.1835 29.25 30.3335 28.65C30.6335 27.9 30.6335 27.3 30.4835 27.3C30.3335 26.55 30.0335 26.55 29.7335 26.4Z" fill="white"/>
</svg>
